<?xml version="1.0" encoding="utf-8"?>
<!-- Generator: Adobe Illustrator 25.2.2, SVG Export Plug-In . SVG Version: 6.00 Build 0)  -->
<svg version="1.1" id="Layer_1" xmlns="http://www.w3.org/2000/svg" xmlns:xlink="http://www.w3.org/1999/xlink" x="0px" y="0px"
	 viewBox="0 0 1080 1080" xml:space="preserve">
<g>
	<g>
		<path d="M736.3,331.7c-11.7-18.8-26.3-35.3-43.9-49.5s-37.5-25.3-59.6-33.3c-22.2-7.9-45.3-11.8-69.6-11.8
			c-44.3,0-82,8.6-112.9,25.7s-56,40.1-75.2,68.9c-19.2,28.9-33.3,61.8-42.1,98.5c-8.8,36.9-13.2,74.8-13.2,114.1
			c0,37.7,4.4,74.2,13.2,109.7c8.8,35.6,22.9,67.6,42.1,96.1c19.2,28.4,44.3,51.1,75.2,68.3s68.6,25.7,112.9,25.7
			c60.2,0,107.3-18.4,141.2-55.2c33.8-36.8,54.5-85.2,62.1-145.5h190.7c-5,56-18.1,106.7-38.9,151.8
			c-20.9,45.1-48.5,83.6-82.8,115.4c-34.3,31.9-74.4,56-120.5,72.8c-45.9,16.7-96.6,25.1-151.8,25.1c-68.6,0-130.3-11.9-185-35.7
			c-54.8-23.9-101-56.7-138.6-98.5c-37.7-41.8-66.5-91-86.6-147.4c-20.1-56.5-30.1-117.3-30.1-182.5c0-66.9,10-128.9,30.1-186.2
			s48.9-107.3,86.6-150s83.8-76.1,138.6-100.3c54.7-24.2,116.4-36.3,185-36.3c49.4,0,96,7,139.9,21.3
			c43.9,14.2,83.2,34.9,117.9,62.1c34.7,27.2,63.4,60.8,86,101c22.6,40.1,36.9,86.2,42.7,138H758.9
			C755.5,371.3,748,350.6,736.3,331.7z"/>
	</g>
</g>
</svg>
